<svg width="84" height="63" viewBox="0 0 84 63" fill="none" xmlns="http://www.w3.org/2000/svg">
<rect x="2" y="2" width="80" height="59" rx="8" stroke="#9AA6B6" stroke-width="4"/>
<path d="M24.1009 38V23.4545H30.1662C31.2552 23.4545 32.1667 23.6084 32.9006 23.9162C33.6392 24.224 34.1932 24.6548 34.5625 25.2088C34.9366 25.7628 35.1236 26.4044 35.1236 27.1335C35.1236 27.6875 35.0076 28.1823 34.7756 28.6179C34.5436 29.0488 34.224 29.4062 33.8168 29.6903C33.4096 29.9744 32.9384 30.1733 32.4034 30.2869V30.429C32.9905 30.4574 33.5327 30.616 34.0298 30.9048C34.5317 31.1937 34.9342 31.5961 35.2372 32.1122C35.5402 32.6236 35.6918 33.2296 35.6918 33.9304C35.6918 34.7116 35.4929 35.41 35.0952 36.0256C34.6974 36.6364 34.1222 37.1193 33.3693 37.4744C32.6165 37.8248 31.7027 38 30.6278 38H24.1009ZM27.6165 35.1662H29.7898C30.5521 35.1662 31.1132 35.0218 31.473 34.733C31.8376 34.4441 32.0199 34.0417 32.0199 33.5256C32.0199 33.1515 31.9323 32.8295 31.7571 32.5597C31.5819 32.285 31.3333 32.0743 31.0114 31.9276C30.6894 31.776 30.3035 31.7003 29.8537 31.7003H27.6165V35.1662ZM27.6165 29.4347H29.5625C29.946 29.4347 30.2869 29.3707 30.5852 29.2429C30.8835 29.1151 31.1155 28.9304 31.2812 28.6889C31.4517 28.4474 31.5369 28.1562 31.5369 27.8153C31.5369 27.3277 31.3641 26.9441 31.0185 26.6648C30.6728 26.3854 30.2064 26.2457 29.6193 26.2457H27.6165V29.4347ZM36.9062 26.3097V23.4545H49.2003V26.3097H44.7898V38H41.3239V26.3097H36.9062ZM63.2965 23.4545V38H60.3136L54.5252 29.6051H54.4329V38H50.9173V23.4545H53.9428L59.6673 31.8352H59.788V23.4545H63.2965Z" fill="#9AA6B6"/>
</svg>
