<svg width="24" height="24" viewBox="0 0 24 24" fill="none" xmlns="http://www.w3.org/2000/svg">
<rect width="24" height="24" rx="6" fill="white"/>
<path d="M11.6 14C11.6 13.7791 11.7791 13.6 12 13.6C12.2209 13.6 12.4 13.7791 12.4 14L11.6 14ZM12.2828 20.2828C12.1266 20.4391 11.8734 20.4391 11.7172 20.2828L9.17157 17.7373C9.01536 17.581 9.01536 17.3278 9.17157 17.1716C9.32778 17.0154 9.58105 17.0154 9.73726 17.1716L12 19.4343L14.2627 17.1716C14.419 17.0154 14.6722 17.0154 14.8284 17.1716C14.9846 17.3278 14.9846 17.581 14.8284 17.7373L12.2828 20.2828ZM12.4 14L12.4 20L11.6 20L11.6 14L12.4 14Z" fill="black"/>
<path d="M10.4996 12.102C10.7205 12.1017 10.8998 12.2806 10.9 12.5015C10.9002 12.7225 10.7213 12.9017 10.5004 12.902L10.4996 12.102ZM4.21745 12.7913C4.06108 12.6353 4.06082 12.382 4.21687 12.2256L6.75981 9.67741C6.91585 9.52104 7.16912 9.52077 7.32549 9.67682C7.48186 9.83287 7.48213 10.0861 7.32608 10.2425L5.06569 12.5076L7.33078 14.768C7.48715 14.924 7.48741 15.1773 7.33137 15.3337C7.17532 15.49 6.92205 15.4903 6.76568 15.3343L4.21745 12.7913ZM10.5004 12.902L4.50042 12.9082L4.49959 12.1082L10.4996 12.102L10.5004 12.902Z" fill="black"/>
<path d="M11.6 11C11.6 11.2209 11.7791 11.4 12 11.4C12.2209 11.4 12.4 11.2209 12.4 11L11.6 11ZM12.2828 4.71716C12.1266 4.56095 11.8734 4.56095 11.7172 4.71716L9.17157 7.26274C9.01536 7.41895 9.01536 7.67222 9.17157 7.82843C9.32778 7.98464 9.58105 7.98464 9.73726 7.82843L12 5.56569L14.2627 7.82843C14.419 7.98464 14.6722 7.98464 14.8284 7.82843C14.9846 7.67222 14.9846 7.41895 14.8284 7.26274L12.2828 4.71716ZM12.4 11L12.4 5L11.6 5L11.6 11L12.4 11Z" fill="black"/>
<path d="M13.4996 12.098C13.2787 12.0983 13.0998 12.2775 13.1 12.4985C13.1002 12.7194 13.2795 12.8983 13.5004 12.898L13.4996 12.098ZM19.7831 12.7744C19.9392 12.618 19.9389 12.3647 19.7825 12.2087L17.2343 9.66574C17.0779 9.50969 16.8247 9.50996 16.6686 9.66633C16.5126 9.8227 16.5128 10.076 16.6692 10.232L18.9343 12.4924L16.6739 14.7575C16.5179 14.9139 16.5181 15.1671 16.6745 15.3232C16.8309 15.4792 17.0841 15.479 17.2402 15.3226L19.7831 12.7744ZM13.5004 12.898L19.5004 12.8918L19.4996 12.0918L13.4996 12.098L13.5004 12.898Z" fill="black"/>
</svg>
