<svg width="24" height="24" viewBox="0 0 24 24" fill="none" xmlns="http://www.w3.org/2000/svg">
<rect width="24" height="24" rx="6" fill="white"/>
<path d="M12.4243 4.57574C12.19 4.34142 11.8101 4.34142 11.5757 4.57574L7.75736 8.39411C7.52305 8.62843 7.52305 9.00833 7.75736 9.24264C7.99167 9.47695 8.37157 9.47696 8.60589 9.24264L12 5.84853L15.3941 9.24264C15.6284 9.47696 16.0083 9.47696 16.2426 9.24264C16.477 9.00833 16.477 8.62843 16.2426 8.39411L12.4243 4.57574ZM12.6 17L12.6 5L11.4 5L11.4 17L12.6 17Z" fill="black"/>
<path d="M12.4243 20.4243C12.19 20.6586 11.8101 20.6586 11.5757 20.4243L7.75736 16.6059C7.52305 16.3716 7.52305 15.9917 7.75736 15.7574C7.99167 15.523 8.37157 15.523 8.60589 15.7574L12 19.1515L15.3941 15.7574C15.6284 15.523 16.0083 15.523 16.2426 15.7574C16.477 15.9917 16.477 16.3716 16.2426 16.6059L12.4243 20.4243ZM12.6 9L12.6 20L11.4 20L11.4 9L12.6 9Z" fill="black"/>
</svg>
