<svg width="24" height="24" viewBox="0 0 24 24" fill="none" xmlns="http://www.w3.org/2000/svg">
<rect width="24" height="24" rx="6" fill="white"/>
<path d="M20.4243 12.4243C20.6586 12.19 20.6586 11.8101 20.4243 11.5757L16.6059 7.75736C16.3716 7.52305 15.9917 7.52305 15.7574 7.75736C15.523 7.99167 15.523 8.37157 15.7574 8.60589L19.1515 12L15.7574 15.3941C15.523 15.6284 15.523 16.0083 15.7574 16.2426C15.9917 16.477 16.3716 16.477 16.6059 16.2426L20.4243 12.4243ZM8 12.6L20 12.6L20 11.4L8 11.4L8 12.6Z" fill="black"/>
<path d="M4.57574 12.4243C4.34142 12.19 4.34142 11.8101 4.57574 11.5757L8.39411 7.75736C8.62843 7.52305 9.00833 7.52305 9.24264 7.75736C9.47695 7.99167 9.47696 8.37157 9.24264 8.60589L5.84853 12L9.24264 15.3941C9.47696 15.6284 9.47696 16.0083 9.24264 16.2426C9.00833 16.477 8.62843 16.477 8.39411 16.2426L4.57574 12.4243ZM16 12.6L5 12.6L5 11.4L16 11.4L16 12.6Z" fill="black"/>
</svg>
