<svg width="24" height="24" viewBox="0 0 24 24" fill="none" xmlns="http://www.w3.org/2000/svg">
<rect width="24" height="24" rx="6" fill="white"/>
<path d="M12.75 7C12.75 6.58579 12.4142 6.25 12 6.25C11.5858 6.25 11.25 6.58579 11.25 7L12.75 7ZM11.4697 19.5303C11.7626 19.8232 12.2374 19.8232 12.5303 19.5303L17.3033 14.7574C17.5962 14.4645 17.5962 13.9896 17.3033 13.6967C17.0104 13.4038 16.5355 13.4038 16.2426 13.6967L12 17.9393L7.75736 13.6967C7.46447 13.4038 6.98959 13.4038 6.6967 13.6967C6.40381 13.9896 6.40381 14.4645 6.6967 14.7574L11.4697 19.5303ZM11.25 7L11.25 19L12.75 19L12.75 7L11.25 7Z" fill="black"/>
</svg>
